<mxfile host="app.diagrams.net" modified="2021-09-20T18:26:32.337Z" agent="5.0 (Windows NT 10.0; Win64; x64) AppleWebKit/537.36 (KHTML, like Gecko) Chrome/93.0.4577.82 Safari/537.36 Edg/93.0.961.52" etag="yNbAKxPUaooOQDLTlpzl" version="15.2.9" type="github">
  <diagram id="3sunacVPgdlQz-tr7I6W" name="Page-1">
    <mxGraphModel dx="2064" dy="730" grid="1" gridSize="10" guides="1" tooltips="1" connect="1" arrows="1" fold="1" page="1" pageScale="1" pageWidth="850" pageHeight="1100" math="0" shadow="0">
      <root>
        <mxCell id="0" />
        <mxCell id="1" parent="0" />
        <mxCell id="ETMLHNKEzJfYGEDNfpWK-1" value="&lt;b&gt;&lt;font style=&quot;font-size: 25px&quot; face=&quot;Roboto&quot; data-font-src=&quot;https://fonts.googleapis.com/css?family=Roboto&quot;&gt;Grip Development&lt;/font&gt;&lt;/b&gt;" style="text;html=1;strokeColor=none;fillColor=none;align=center;verticalAlign=middle;whiteSpace=wrap;rounded=0;" vertex="1" parent="1">
          <mxGeometry x="-610" width="370" height="40" as="geometry" />
        </mxCell>
        <mxCell id="ETMLHNKEzJfYGEDNfpWK-2" value="" style="group" vertex="1" connectable="0" parent="1">
          <mxGeometry x="-545" y="40" width="240" height="200" as="geometry" />
        </mxCell>
        <mxCell id="ETMLHNKEzJfYGEDNfpWK-3" value="" style="rounded=1;whiteSpace=wrap;html=1;fillColor=none;strokeWidth=5;" vertex="1" parent="ETMLHNKEzJfYGEDNfpWK-2">
          <mxGeometry x="-4.444444444444445" y="30" width="240" height="170" as="geometry" />
        </mxCell>
        <mxCell id="ETMLHNKEzJfYGEDNfpWK-4" value="&lt;font style=&quot;font-size: 14px&quot; face=&quot;Roboto&quot; data-font-src=&quot;https://fonts.googleapis.com/css?family=Roboto&quot;&gt;&lt;b&gt;Targeting&lt;/b&gt;&lt;/font&gt;" style="text;html=1;strokeColor=none;fillColor=none;align=center;verticalAlign=middle;whiteSpace=wrap;rounded=0;" vertex="1" parent="ETMLHNKEzJfYGEDNfpWK-2">
          <mxGeometry x="26.666666666666664" width="177.77777777777777" height="30" as="geometry" />
        </mxCell>
        <mxCell id="ETMLHNKEzJfYGEDNfpWK-5" value="" style="rounded=1;whiteSpace=wrap;html=1;fillColor=none;strokeWidth=3;" vertex="1" parent="ETMLHNKEzJfYGEDNfpWK-2">
          <mxGeometry x="17.77777777777778" y="50" width="80" height="40" as="geometry" />
        </mxCell>
        <mxCell id="ETMLHNKEzJfYGEDNfpWK-6" value="&lt;b&gt;&lt;font face=&quot;Roboto&quot; data-font-src=&quot;https://fonts.googleapis.com/css?family=Roboto&quot;&gt;Primary&lt;/font&gt;&lt;/b&gt;" style="text;html=1;strokeColor=none;fillColor=none;align=center;verticalAlign=middle;whiteSpace=wrap;rounded=0;" vertex="1" parent="ETMLHNKEzJfYGEDNfpWK-2">
          <mxGeometry x="26.666666666666664" y="55" width="62.22222222222222" height="30" as="geometry" />
        </mxCell>
        <mxCell id="ETMLHNKEzJfYGEDNfpWK-7" value="" style="rounded=1;whiteSpace=wrap;html=1;fillColor=none;strokeWidth=3;" vertex="1" parent="ETMLHNKEzJfYGEDNfpWK-2">
          <mxGeometry x="17.77777777777778" y="140" width="80" height="40" as="geometry" />
        </mxCell>
        <mxCell id="ETMLHNKEzJfYGEDNfpWK-8" value="&lt;b&gt;&lt;font face=&quot;Roboto&quot; data-font-src=&quot;https://fonts.googleapis.com/css?family=Roboto&quot;&gt;Secondary&lt;/font&gt;&lt;/b&gt;" style="text;html=1;strokeColor=none;fillColor=none;align=center;verticalAlign=middle;whiteSpace=wrap;rounded=0;" vertex="1" parent="ETMLHNKEzJfYGEDNfpWK-2">
          <mxGeometry x="26.666666666666664" y="145" width="62.22222222222222" height="30" as="geometry" />
        </mxCell>
        <mxCell id="ETMLHNKEzJfYGEDNfpWK-9" value="" style="rounded=1;whiteSpace=wrap;html=1;fillColor=none;strokeWidth=3;" vertex="1" parent="ETMLHNKEzJfYGEDNfpWK-2">
          <mxGeometry x="133.33333333333331" y="95" width="80" height="40" as="geometry" />
        </mxCell>
        <mxCell id="ETMLHNKEzJfYGEDNfpWK-10" value="&lt;font face=&quot;Roboto&quot;&gt;&lt;b&gt;Tertiary&lt;/b&gt;&lt;/font&gt;" style="text;html=1;strokeColor=none;fillColor=none;align=center;verticalAlign=middle;whiteSpace=wrap;rounded=0;" vertex="1" parent="ETMLHNKEzJfYGEDNfpWK-2">
          <mxGeometry x="142.22222222222223" y="100" width="62.22222222222222" height="30" as="geometry" />
        </mxCell>
        <mxCell id="ETMLHNKEzJfYGEDNfpWK-11" value="" style="group;strokeWidth=5;" vertex="1" connectable="0" parent="1">
          <mxGeometry x="-840" y="40" width="240" height="200" as="geometry" />
        </mxCell>
        <mxCell id="ETMLHNKEzJfYGEDNfpWK-12" value="" style="rounded=1;whiteSpace=wrap;html=1;fillColor=none;strokeWidth=5;" vertex="1" parent="ETMLHNKEzJfYGEDNfpWK-11">
          <mxGeometry y="30" width="240" height="170" as="geometry" />
        </mxCell>
        <mxCell id="ETMLHNKEzJfYGEDNfpWK-13" value="&lt;font style=&quot;font-size: 14px&quot; face=&quot;Roboto&quot; data-font-src=&quot;https://fonts.googleapis.com/css?family=Roboto&quot;&gt;&lt;b&gt;Bite Mechanics&lt;/b&gt;&lt;/font&gt;" style="text;html=1;strokeColor=none;fillColor=none;align=center;verticalAlign=middle;whiteSpace=wrap;rounded=0;" vertex="1" parent="ETMLHNKEzJfYGEDNfpWK-11">
          <mxGeometry x="26.666666666666664" width="177.77777777777777" height="30" as="geometry" />
        </mxCell>
        <mxCell id="ETMLHNKEzJfYGEDNfpWK-14" value="" style="rounded=1;whiteSpace=wrap;html=1;fillColor=none;strokeWidth=3;" vertex="1" parent="ETMLHNKEzJfYGEDNfpWK-11">
          <mxGeometry x="75.55555555555556" y="50" width="80" height="60" as="geometry" />
        </mxCell>
        <mxCell id="ETMLHNKEzJfYGEDNfpWK-15" value="&lt;b&gt;&lt;font face=&quot;Roboto&quot; data-font-src=&quot;https://fonts.googleapis.com/css?family=Roboto&quot;&gt;Pressure &lt;br&gt;&amp;amp;&lt;br&gt;Depth&lt;br&gt;&lt;/font&gt;&lt;/b&gt;" style="text;html=1;strokeColor=none;fillColor=none;align=center;verticalAlign=middle;whiteSpace=wrap;rounded=0;" vertex="1" parent="ETMLHNKEzJfYGEDNfpWK-11">
          <mxGeometry x="84.44444444444444" y="65" width="62.22222222222222" height="30" as="geometry" />
        </mxCell>
        <mxCell id="ETMLHNKEzJfYGEDNfpWK-16" value="" style="rounded=1;whiteSpace=wrap;html=1;fillColor=none;strokeWidth=3;" vertex="1" parent="ETMLHNKEzJfYGEDNfpWK-11">
          <mxGeometry x="75.55555555555556" y="120" width="80" height="50" as="geometry" />
        </mxCell>
        <mxCell id="ETMLHNKEzJfYGEDNfpWK-17" value="&lt;font face=&quot;Roboto&quot;&gt;&lt;b&gt;Countering &amp;amp;&lt;br&gt;Pushing&lt;/b&gt;&lt;/font&gt;" style="text;html=1;strokeColor=none;fillColor=none;align=center;verticalAlign=middle;whiteSpace=wrap;rounded=0;" vertex="1" parent="ETMLHNKEzJfYGEDNfpWK-11">
          <mxGeometry x="84.44444444444444" y="130" width="62.22222222222222" height="30" as="geometry" />
        </mxCell>
        <mxCell id="ETMLHNKEzJfYGEDNfpWK-18" value="" style="group" vertex="1" connectable="0" parent="1">
          <mxGeometry x="-260" y="40" width="240" height="200" as="geometry" />
        </mxCell>
        <mxCell id="ETMLHNKEzJfYGEDNfpWK-19" value="" style="rounded=1;whiteSpace=wrap;html=1;fillColor=none;strokeWidth=5;" vertex="1" parent="ETMLHNKEzJfYGEDNfpWK-18">
          <mxGeometry y="30" width="240" height="170" as="geometry" />
        </mxCell>
        <mxCell id="ETMLHNKEzJfYGEDNfpWK-20" value="&lt;font style=&quot;font-size: 14px&quot; face=&quot;Roboto&quot; data-font-src=&quot;https://fonts.googleapis.com/css?family=Roboto&quot;&gt;&lt;b&gt;Entries&lt;/b&gt;&lt;/font&gt;" style="text;html=1;strokeColor=none;fillColor=none;align=center;verticalAlign=middle;whiteSpace=wrap;rounded=0;" vertex="1" parent="ETMLHNKEzJfYGEDNfpWK-18">
          <mxGeometry x="26.666666666666664" width="177.77777777777777" height="30" as="geometry" />
        </mxCell>
        <mxCell id="ETMLHNKEzJfYGEDNfpWK-21" value="" style="rounded=1;whiteSpace=wrap;html=1;fillColor=none;strokeWidth=3;" vertex="1" parent="ETMLHNKEzJfYGEDNfpWK-18">
          <mxGeometry x="17.77777777777778" y="50" width="80" height="60" as="geometry" />
        </mxCell>
        <mxCell id="ETMLHNKEzJfYGEDNfpWK-22" value="&lt;b&gt;&lt;font face=&quot;Roboto&quot; data-font-src=&quot;https://fonts.googleapis.com/css?family=Roboto&quot;&gt;Speed &lt;br&gt;&amp;amp; &lt;br&gt;Power&lt;/font&gt;&lt;/b&gt;" style="text;html=1;strokeColor=none;fillColor=none;align=center;verticalAlign=middle;whiteSpace=wrap;rounded=0;" vertex="1" parent="ETMLHNKEzJfYGEDNfpWK-18">
          <mxGeometry x="26.666666666666664" y="57.5" width="62.22222222222222" height="45" as="geometry" />
        </mxCell>
        <mxCell id="ETMLHNKEzJfYGEDNfpWK-23" value="" style="rounded=1;whiteSpace=wrap;html=1;fillColor=none;strokeWidth=3;" vertex="1" parent="ETMLHNKEzJfYGEDNfpWK-18">
          <mxGeometry x="142.22222222222223" y="50" width="80" height="60" as="geometry" />
        </mxCell>
        <mxCell id="ETMLHNKEzJfYGEDNfpWK-24" value="&lt;font face=&quot;Roboto&quot;&gt;&lt;b&gt;Distance&lt;/b&gt;&lt;/font&gt;" style="text;html=1;strokeColor=none;fillColor=none;align=center;verticalAlign=middle;whiteSpace=wrap;rounded=0;" vertex="1" parent="ETMLHNKEzJfYGEDNfpWK-18">
          <mxGeometry x="151.11111111111111" y="67.5" width="62.22222222222222" height="25" as="geometry" />
        </mxCell>
      </root>
    </mxGraphModel>
  </diagram>
</mxfile>
